<svg width="23" height="24" viewBox="0 0 23 24" fill="none" xmlns="http://www.w3.org/2000/svg">
<g id="Vector">
<path d="M23 12.2727C23 11.4218 22.9253 10.6036 22.7866 9.81818H11.7347V14.4655H18.0501C17.7727 15.96 16.9406 17.2255 15.6925 18.0764V21.0982H19.5009C21.7199 19.0036 23 15.9273 23 12.2727Z" fill="#4285F4"/>
<path d="M11.7347 24C14.9031 24 17.5594 22.9309 19.5009 21.0982L15.6925 18.0764C14.647 18.7964 13.3135 19.2327 11.7347 19.2327C8.68367 19.2327 6.09137 17.1273 5.16327 14.2909H1.25881V17.3891C3.1897 21.3055 7.1475 24 11.7347 24Z" fill="#34A853"/>
<path d="M5.16327 14.28C4.92857 13.56 4.78989 12.7964 4.78989 12C4.78989 11.2036 4.92857 10.44 5.16327 9.72V6.62182H1.25881C0.45872 8.23636 0 10.0582 0 12C0 13.9418 0.45872 15.7636 1.25881 17.3782L4.29917 14.9564L5.16327 14.28Z" fill="#FBBC05"/>
<path d="M11.7347 4.77818C13.4629 4.77818 14.9991 5.38909 16.2259 6.56727L19.5863 3.13091C17.5487 1.18909 14.9031 0 11.7347 0C7.1475 0 3.1897 2.69455 1.25881 6.62182L5.16327 9.72C6.09137 6.88364 8.68367 4.77818 11.7347 4.77818Z" fill="#EA4335"/>
</g>
</svg>
